<svg width="149" height="149" viewBox="0 0 149 149" fill="none" xmlns="http://www.w3.org/2000/svg">
<path d="M106.429 74.5002C106.429 86.256 110.637 95.7858 122.393 95.7858C135.696 82.4823 149 74.5002 149 74.5002C149 74.5002 135.696 58.536 122.393 53.2146C110.637 53.2146 106.429 62.7445 106.429 74.5002Z" fill="#00A5CF"/>
<path d="M42.5713 74.5003C42.5713 62.7445 38.3628 53.2147 26.6071 53.2147C13.3042 66.5182 1.51658e-05 74.5003 1.51658e-05 74.5003C1.51658e-05 74.5003 13.3035 90.4645 26.607 95.7859C38.3628 95.7859 42.5713 86.256 42.5713 74.5003Z" fill="#25A18E"/>
<path fill-rule="evenodd" clip-rule="evenodd" d="M91.9645 146.942C84.7839 143.521 79.8211 136.197 79.8211 127.714C79.8211 115.958 89.351 106.428 101.107 106.428C112.862 106.428 122.392 115.958 122.392 127.714C122.392 129.152 122.25 130.556 121.978 131.914C113.384 139.028 103.167 144.251 91.9645 146.942Z" fill="#00A5CF"/>
<path fill-rule="evenodd" clip-rule="evenodd" d="M57.0359 2.05874C64.2161 5.4792 69.1784 12.8032 69.1784 21.2862C69.1784 33.0419 59.6485 42.5718 47.8928 42.5718C36.1371 42.5718 26.6072 33.0419 26.6072 21.2862C26.6072 19.8486 26.7497 18.4444 27.0213 17.0868C35.6152 9.97198 45.833 4.74974 57.0359 2.05874Z" fill="#25A18E"/>
<path d="M102 21C102 21 86.875 21.0001 85.5 21C84.125 20.9999 81.375 21 80 21.0001C80 23.8661 80 26.7321 80 28.6429C80 30.5536 80 128 80 128L102 128L102 21Z" fill="#00A5CF"/>
<path d="M47 128C47 128 62.125 128 63.5 128C64.875 128 67.625 128 69 128C69 125.134 69 122.268 69 120.357C69 118.446 69 21 69 21L47 21L47 128Z" fill="#25A18E"/>
<path fill-rule="evenodd" clip-rule="evenodd" d="M21.2858 106.428H37.25V139.033C31.3742 135.634 26.0056 131.456 21.2858 126.64V106.428Z" fill="#25A18E"/>
<path fill-rule="evenodd" clip-rule="evenodd" d="M127.714 42.5719C115.958 42.5719 106.428 33.042 106.428 21.2863C106.428 16.7627 107.839 12.5686 110.245 9.12036C122.729 15.9601 133.04 26.2712 139.88 38.7548C136.431 41.1608 132.237 42.5719 127.714 42.5719Z" fill="#00A5CF"/>
<path fill-rule="evenodd" clip-rule="evenodd" d="M42.5714 127.714C42.5714 115.958 33.0415 106.428 21.2858 106.428C16.7621 106.428 12.5679 107.839 9.11954 110.245C15.9592 122.729 26.2703 133.04 38.7539 139.88C41.1602 136.432 42.5714 132.238 42.5714 127.714Z" fill="#25A18E"/>
<path fill-rule="evenodd" clip-rule="evenodd" d="M127.714 42.5718H111.75V9.96725C115.518 12.1474 119.078 14.6481 122.392 17.4323C124.245 18.9889 126.021 20.634 127.714 22.3613V42.5718Z" fill="#00A5CF"/>
<path fill-rule="evenodd" clip-rule="evenodd" d="M26.6072 131.568L26.6072 21.2857L47.8928 21.2857L47.8928 139.877L47.8928 144.108C44.7379 142.902 41.686 141.487 38.7539 139.88C38.249 139.604 37.7477 139.321 37.25 139.033C33.6378 136.944 30.2174 134.56 27.0215 131.914C26.883 131.799 26.7449 131.684 26.6072 131.568Z" fill="#25A18E"/>
<path fill-rule="evenodd" clip-rule="evenodd" d="M122.392 17.4324C118.641 14.2806 114.574 11.4919 110.245 9.12044C107.313 7.51402 104.262 6.09909 101.107 4.89247L101.107 9.12314L101.107 127.714L122.392 127.714L122.392 17.4324ZM101.107 0.000823975C102.437 0.000778198 105.098 0.000671387 106.428 0.000793457C105.194 0.000686646 102.816 0.000762939 101.416 0.000823975L101.107 0.000823975Z" fill="#00A5CF"/>
<path fill-rule="evenodd" clip-rule="evenodd" d="M101.107 42.5719C89.351 42.5719 79.8211 33.042 79.8211 21.2862C79.8211 12.8033 84.7834 5.4793 91.9636 2.05884C95.0928 2.81049 98.1452 3.75965 101.107 4.89235C104.262 6.09897 107.313 7.5139 110.245 9.12032C110.75 9.39701 111.252 9.67937 111.75 9.96733C115.362 12.0569 118.782 14.4411 121.978 17.0869C122.25 18.4445 122.392 19.8487 122.392 21.2862C122.392 33.042 112.862 42.5719 101.107 42.5719Z" fill="#00A5CF"/>
<path fill-rule="evenodd" clip-rule="evenodd" d="M47.8928 106.428C59.6485 106.428 69.1784 115.958 69.1784 127.714C69.1784 136.197 64.2157 143.521 57.035 146.942C50.5726 145.389 44.4381 142.995 38.7539 139.88C38.249 139.604 37.7477 139.321 37.25 139.033C33.6378 136.944 30.2174 134.56 27.0215 131.914C26.7497 130.556 26.6072 129.152 26.6072 127.714C26.6072 115.958 36.1371 106.428 47.8928 106.428Z" fill="#25A18E"/>
<ellipse cx="31.9284" cy="31.9284" rx="31.9284" ry="31.9284" transform="matrix(-1 8.74228e-08 8.74228e-08 1 106.428 42.5718)" fill="#F5F5F5"/>
<path d="M53.2141 74.5002C55.8748 86.4734 62.5265 93.1251 74.4997 95.7858C86.4729 93.1251 93.1246 86.4734 95.7853 74.5002C93.1246 62.5271 86.4729 55.8753 74.4997 53.2146C62.5265 55.8753 55.8748 62.5271 53.2141 74.5002Z" fill="#FFCB6B"/>
</svg>
